<?xml version="1.0" encoding="UTF-8" standalone="no"?>
<!-- Created with Inkscape (http://www.inkscape.org/) -->

<svg
   xmlns:dc="http://purl.org/dc/elements/1.1/"
   xmlns:cc="http://creativecommons.org/ns#"
   xmlns:rdf="http://www.w3.org/1999/02/22-rdf-syntax-ns#"
   xmlns:svg="http://www.w3.org/2000/svg"
   xmlns="http://www.w3.org/2000/svg"
   xmlns:sodipodi="http://sodipodi.sourceforge.net/DTD/sodipodi-0.dtd"
   xmlns:inkscape="http://www.inkscape.org/namespaces/inkscape"
   width="300"
   height="300"
   viewBox="0 0 300 300"
   id="svg2"
   version="1.1"
   inkscape:version="0.91 r13725"
   sodipodi:docname="logo.svg"
   inkscape:export-filename="/home/dotintegral/workspace/js/girls.js/favicon.png"
   inkscape:export-xdpi="14.4"
   inkscape:export-ydpi="14.4">
  <defs
     id="defs4" />
  <sodipodi:namedview
     id="base"
     pagecolor="#ffffff"
     bordercolor="#666666"
     borderopacity="1.0"
     inkscape:pageopacity="0.0"
     inkscape:pageshadow="2"
     inkscape:zoom="1.979899"
     inkscape:cx="198.89627"
     inkscape:cy="122.02267"
     inkscape:document-units="px"
     inkscape:current-layer="layer2"
     showgrid="false"
     units="px"
     inkscape:window-width="1875"
     inkscape:window-height="1056"
     inkscape:window-x="45"
     inkscape:window-y="24"
     inkscape:window-maximized="1" />
  <metadata
     id="metadata7">
    <rdf:RDF>
      <cc:Work
         rdf:about="">
        <dc:format>image/svg+xml</dc:format>
        <dc:type
           rdf:resource="http://purl.org/dc/dcmitype/StillImage" />
        <dc:title />
      </cc:Work>
    </rdf:RDF>
  </metadata>
  <g
     inkscape:label="Layer 1"
     inkscape:groupmode="layer"
     id="layer1"
     transform="translate(0,-752.36216)" />
  <g
     inkscape:groupmode="layer"
     id="layer2"
     inkscape:label="Layer 2"
     style="display:inline">
    <g
       id="g4138"
       transform="matrix(1.1473781,0,0,1.1473781,-20.46469,-25.134866)">
      <path
         sodipodi:nodetypes="ccccscscssssssscc"
         inkscape:connector-curvature="0"
         id="path4169"
         d="m 183.21484,26.333988 c -37.60756,-2.51e-4 -68.09487,30.486191 -68.0957,68.09375 0.005,17.817032 6.99309,34.922402 19.46484,47.646482 -0.0861,0.28295 -0.1733,0.56626 -0.23437,0.84766 0,0 -18.30082,-6.90664 -41.292969,-3.7461 -26.480948,3.64012 -36.614155,20.91875 -36.614155,20.91875 0,0 -3.687171,2.79255 -12.375189,-7.57734 -6.989452,-8.34251 -18.307531,-14.6461 -18.307531,-14.6461 0,0 -0.168391,10.29348 -4.041016,27.27344 -4.924494,21.592 -3.031618,38.89188 3.029297,58.58985 6.060916,19.69798 34.804797,56.48193 68.023437,56.35937 14.785786,-0.0546 73.306136,0.24358 101.080076,-0.29687 36.70776,-0.7143 67.36007,-35.72743 71.75782,-78.54688 3.99476,-38.8956 -12.35647,-50.48314 -19.82756,-59.2408 -5.391,-6.31937 -6.85408,-10.27708 -2.66362,-15.80112 6.06347,-7.99311 8.18784,-18.12593 8.19039,-31.780342 -8.3e-4,-37.606798 -30.48695,-68.092924 -68.09375,-68.09375 z"
         style="fill:#fcd050;fill-opacity:1;fill-rule:nonzero;stroke:none;stroke-width:1.23809528;stroke-linejoin:round;stroke-miterlimit:4;stroke-dasharray:none;stroke-opacity:1" />
      <circle
         r="7.8571429"
         cy="86.071426"
         cx="192.5"
         id="path4187"
         style="fill:#000000;fill-opacity:1;fill-rule:nonzero;stroke:#000000;stroke-width:1;stroke-linejoin:round;stroke-miterlimit:4;stroke-dasharray:none;stroke-opacity:1" />
      <path
         inkscape:connector-curvature="0"
         id="path4189"
         d="M 63.945312,182.14258 A 66.071426,66.071426 0 0 0 63.927734,182.5 66.071426,66.071426 0 0 0 130,248.57227 66.071426,66.071426 0 0 0 196.07227,182.5 a 66.071426,66.071426 0 0 0 -0.0137,-0.35742 l -132.113278,0 z"
         style="fill:#f6921e;fill-opacity:1;fill-rule:nonzero;stroke:none;stroke-width:1;stroke-linejoin:round;stroke-miterlimit:4;stroke-dasharray:none;stroke-opacity:1" />
      <path
         sodipodi:nodetypes="zzssssssz"
         inkscape:connector-curvature="0"
         id="path4194"
         d="m 259.20278,88.030458 c -5.65558,-0.06307 -8.6234,-2.254838 -17.37002,-2.04197 -8.74662,0.212868 -15.92721,9.224438 -15.76133,16.511512 0.20578,9.03979 5.67633,18.91306 16.50471,18.86358 18.40103,-0.0841 30.01512,7.69267 33.81282,-0.21293 3.71753,-7.73871 -4.37981,-8.88152 -4.4807,-14.5562 -0.0882,-4.9608 4.52031,-5.16588 6.66317,-9.09445 2.14286,-3.928572 -0.45225,-10.083139 -2.85714,-11.071429 -3.88896,-1.598169 -10.85594,1.664954 -16.51151,1.601887 z"
         style="fill:#f6921e;fill-opacity:1;fill-rule:evenodd;stroke:none;stroke-width:1px;stroke-linecap:butt;stroke-linejoin:miter;stroke-opacity:1" />
    </g>
  </g>
</svg>
