<?xml version="1.0" encoding="UTF-8" standalone="no"?>
<!-- Created with Inkscape (http://www.inkscape.org/) -->

<svg
   xmlns:dc="http://purl.org/dc/elements/1.1/"
   xmlns:cc="http://creativecommons.org/ns#"
   xmlns:rdf="http://www.w3.org/1999/02/22-rdf-syntax-ns#"
   xmlns:svg="http://www.w3.org/2000/svg"
   xmlns="http://www.w3.org/2000/svg"
   xmlns:sodipodi="http://sodipodi.sourceforge.net/DTD/sodipodi-0.dtd"
   xmlns:inkscape="http://www.inkscape.org/namespaces/inkscape"
   width="512"
   height="512"
   viewBox="0 0 511.99999 511.99999"
   id="svg2"
   version="1.1"
   inkscape:version="0.91 r13725"
   sodipodi:docname="kaczucha.svg">
  <defs
     id="defs4" />
  <sodipodi:namedview
     id="base"
     pagecolor="#ffffff"
     bordercolor="#666666"
     borderopacity="1.0"
     inkscape:pageopacity="0.0"
     inkscape:pageshadow="2"
     inkscape:zoom="1.979899"
     inkscape:cx="282.12755"
     inkscape:cy="268.74543"
     inkscape:document-units="px"
     inkscape:current-layer="layer2"
     showgrid="false"
     units="px"
     inkscape:window-width="1875"
     inkscape:window-height="1056"
     inkscape:window-x="45"
     inkscape:window-y="24"
     inkscape:window-maximized="1" />
  <metadata
     id="metadata7">
    <rdf:RDF>
      <cc:Work
         rdf:about="">
        <dc:format>image/svg+xml</dc:format>
        <dc:type
           rdf:resource="http://purl.org/dc/dcmitype/StillImage" />
        <dc:title />
      </cc:Work>
    </rdf:RDF>
  </metadata>
  <g
     inkscape:label="Layer 1"
     inkscape:groupmode="layer"
     id="layer1"
     transform="translate(0,-540.36219)" />
  <g
     inkscape:groupmode="layer"
     id="layer2"
     inkscape:label="Layer 2">
    <path
       style="fill:#e5bb31;fill-opacity:1;fill-rule:evenodd;stroke:none;stroke-width:1px;stroke-linecap:butt;stroke-linejoin:miter;stroke-opacity:1"
       d="m 308.11348,28.226761 c -33.46723,-0.351578 -78.0954,13.597668 -102.27539,40.628906 -17.01879,19.933649 -27.10305,41.751393 -23.74218,63.769533 3.36087,22.01813 11.79331,39.59338 18.79882,48.62305 8.65231,11.15231 21.59586,22.43156 24.78711,25.67578 3.19125,3.24422 15.8099,11.28062 11.9043,26.31445 -3.9056,15.03383 -33.42091,17.82691 -44.35352,17.36329 -24.73166,-1.04884 -48.65451,-2.36717 -72.90429,-20.38672 -33.560021,-24.93781 -43.207855,-64.94262 -55.023444,-63.69532 -9.596858,1.01308 -19.569034,15.89775 -26.441406,40.64649 -6.634207,23.89106 -12.835938,55.43558 -12.835938,65.53711 0,10.10152 -1.401135,47.372 6.472656,73.83398 7.586267,25.49567 14.260605,41.95006 29.917969,57.60742 15.657365,15.65737 41.997203,32.42631 62.125003,39.90235 20.1278,7.47604 36.93986,11.84736 69.66406,17.29492 32.7242,5.44756 113.67823,8.46405 142.97266,5.43359 29.29442,-3.03046 64.92655,-6.80208 93.62695,-28.79492 28.88126,-22.13144 38.86979,-49.98845 43.16016,-67.61328 4.29037,-17.62483 4.73509,-36.42807 2.26172,-52.11523 -2.47337,-15.68716 -5.76447,-26.32506 -13.84571,-39.45704 -8.0812,-13.13199 -17.58279,-26.73633 -44.4121,-35.67578 -19.72257,-6.5715 -24.32356,-32.61383 -24.75391,-40.68359 -0.53571,-10.0455 7.68287,-25.22855 14.85742,-42.09375 0.96898,-2.27777 1.75798,-4.62802 2.41211,-7.01367 1.29746,0.5207 7.55964,2.72163 17.76172,1.31445 10.35714,-1.42857 19.5589,-5.76544 30,-11.96484 11.42856,-6.78571 18.83667,-13.92191 18.57031,-22.14258 -0.27235,-8.40553 -17.20025,-15.89794 -23.39258,-18.03711 -9.58614,-3.311588 -24.12665,-11.707798 -46.23632,-14.267583 -2.25074,-5.593156 -5.11157,-11.075489 -8.39063,-15.919922 -13.08122,-19.325964 -23.54187,-25.972254 -35.97266,-32.708984 -12.43079,-6.73673 -21.24566,-11.023422 -54.71289,-11.375 z m -2.30273,8.886719 c 29.18332,-0.326444 47.81084,11.8789 61.16211,22.322265 14.24134,11.13959 22.78089,27.031675 28.73437,42.003915 5.95348,14.97223 2.9355,36.21038 -0.61718,48.76562 -3.55268,12.55523 -8.83168,22.45976 -16.24414,32.48242 -15.05271,20.35333 -6.60463,33.9651 -2.75196,40.98047 3.33898,6.07998 15.21324,17.31418 28.92774,25.09766 21.11064,11.98105 32.61066,29.35236 41.15429,43.30273 6.91228,11.28664 18.33402,30.04475 19.20703,49.75977 0.87301,19.71502 -5.75765,34.78251 -13.01171,48.125 -7.25406,13.34249 -18.3279,28.14641 -49.18946,42.5 -28.14125,13.08839 -55.0419,11.58045 -81.61523,11.68164 -25.27877,0.0963 -86.06029,-3.55932 -114.86328,-6.80664 -28.80298,-3.24732 -42.51829,-4.67951 -68.54492,-9.66797 C 112.13177,422.6719 90.058786,408.99405 74.119339,390.19747 61.826844,375.70155 49.593598,353.7052 42.724808,330.03536 c -6.604416,-22.7588 -1.26901,-51.16711 1.050781,-66.05469 2.319791,-14.88758 8.357718,-35.92513 14.587891,-48.03906 10.083254,-19.60586 6.424401,-24.91084 6.804687,-32.20899 7.820441,4.46511 16.118288,34.06058 43.835943,51.2793 33.069,20.54309 64.7434,25.74459 85.9707,24.82031 23.66968,-1.03062 51.68196,-2.17835 56.46289,-18.29687 4.78093,-16.11852 -0.51387,-23.55211 -8.43164,-31.1582 -7.91777,-7.60609 -15.62601,-18.05472 -24.13281,-26.68165 -9.22745,-9.35773 -18.96676,-23.90746 -21.85156,-42.80664 -2.88479,-18.89919 0.72189,-35.09995 18.95117,-56.521484 18.22927,-21.421527 51.20432,-44.819355 83.85937,-47.017578 2.04094,-0.137389 4.03296,-0.214565 5.97852,-0.236328 z m 35.75391,52.43164 c -4.0625,0.04464 -6.34041,2.054967 -8.92969,4.28711 -2.55192,2.199933 -5.89253,6.24699 -6.51758,10.44532 -0.86704,5.82366 0.1796,10.27126 1.25,12.94726 1.78571,4.46429 4.99973,7.3217 9.64258,9.10742 4.64286,1.78571 10.08984,0.0882 13.83984,-2.05468 3.75,-2.14285 6.69616,-8.66016 6.51758,-13.66016 -0.17857,-5 -1.83127,-10.882184 -4.82227,-14.642582 -2.37621,-2.987454 -6.91796,-6.474328 -10.98046,-6.429688 z m 2.3457,7.511719 c 0.32428,4.25e-4 0.63811,0.03711 0.93945,0.115235 2.41071,0.625 4.46456,5.446436 5.35742,8.125006 0.89286,2.67857 0.98243,6.875 -0.26757,9.375 -0.7534,1.50679 -2.67829,3.92857 -5.26758,4.375 -2.58928,0.44643 -6.07199,0.62556 -8.21485,-1.16016 -2.33008,-1.94174 -3.24972,-4.71987 -3.48242,-7.58984 -0.26785,-3.30357 1.34041,-6.87361 3.92969,-9.46289 1.99181,-1.991815 4.73588,-3.780326 7.00586,-3.777351 z m 83.15039,13.121101 c 2.11683,0.11164 3.98134,1.09678 5.31445,2.04297 1.36692,0.7594 11.71708,17.62537 11.42969,18.57226 -0.49291,1.62406 -5.72749,4.69309 -6.60742,4.01758 -0.58402,-0.44835 -12.14258,-24.46484 -12.14258,-24.46484 0.36655,-0.0832 0.72754,-0.13458 1.08398,-0.16016 0.31189,-0.0224 0.61947,-0.0236 0.92188,-0.008 z m -10.88672,2.83789 c 0.11565,0.007 0.24747,0.0387 0.39844,0.0996 2.41545,0.97478 14.33728,24.50714 13.66015,24.64257 -0.72166,1.34693 -1.74838,1.7742 -2.94531,1.69532 l -10.80469,-20.89258 c 0,0 -2.04331,-5.64266 -0.30859,-5.54492 z m 29.50391,4.35156 c 1.03987,0.0336 10.64229,2.90123 11.07226,4.76562 0.32353,1.40288 -5.33712,5.11042 -6.07031,5.17774 -1.19474,0.1097 -5.79099,-9.48947 -5.08984,-9.91016 -0.012,-0.0241 0.0186,-0.0354 0.0879,-0.0332 z"
       id="path4146"
       inkscape:connector-curvature="0" />
  </g>
</svg>
